<svg width="100%" height="100%" xmlns="http://www.w3.org/2000/svg">
  <defs>
    <!-- Gradient Definition -->
    <linearGradient id="blue-yellow-gradient" x1="0%" y1="0%" x2="100%" y2="100%">
      <stop offset="0%" style="stop-color:#0000FF; stop-opacity:1" />
      <stop offset="100%" style="stop-color:#FFFF00; stop-opacity:1" />
    </linearGradient>

    <!-- First Font Awesome Icon Pattern -->
    <pattern id="fa-pattern1" patternUnits="userSpaceOnUse" width="50" height="83">
      <svg xmlns="http://www.w3.org/2000/svg" viewBox="0 0 512 512" x="0" y="0" width="70" height="70">
        <path d="M416 208c0 45.9-14.9 88.3-40 122.7L502.6 457.4c12.5 12.5 12.5 32.8 0 45.3s-32.8 12.5-45.3 0L330.7 376c-34.4 25.2-76.8 40-122.7 40C93.1 416 0 322.9 0 208S93.1 0 208 0S416 93.1 416 208zM208 352a144 144 0 1 0 0-288 144 144 0 1 0 0 288z" fill="#000000" transform="translate(25, 25) scale(0.15)"/>
      </svg>
    </pattern>

    <!-- Second Font Awesome Icon Pattern -->
    <pattern id="fa-pattern2" patternUnits="userSpaceOnUse" width="92" height="80">
      <svg xmlns="http://www.w3.org/2000/svg" viewBox="0 0 384 512" x="0" y="35" width="70" height="70">
        <path d="M64 464c-8.8 0-16-7.2-16-16L48 64c0-8.8 7.2-16 16-16l160 0 0 80c0 17.7 14.3 32 32 32l80 0 0 288c0 8.8-7.2 16-16 16L64 464zM64 0C28.7 0 0 28.7 0 64L0 448c0 35.3 28.7 64 64 64l256 0c35.3 0 64-28.7 64-64l0-293.5c0-17-6.7-33.3-18.7-45.3L274.7 18.7C262.7 6.7 246.5 0 229.5 0L64 0zm56 256c-13.3 0-24 10.7-24 24s10.7 24 24 24l144 0c13.3 0 24-10.7 24-24s-10.7-24-24-24l-144 0zm0 96c-13.3 0-24 10.7-24 24s10.7 24 24 24l144 0c13.3 0 24-10.7 24-24s-10.7-24-24-24l-144 0z" fill="#000000" transform="translate(25, 25) scale(0.15)"/>
      </svg>
    </pattern>

    <!-- Third SVG Icon Pattern -->
    <pattern id="svg-pattern3" patternUnits="userSpaceOnUse" width="95" height="80">
      <svg fill="#000000" version="1.1" xmlns="http://www.w3.org/2000/svg" xmlns:xlink="http://www.w3.org/1999/xlink" viewBox="0 0 31.474 31.474" xml:space="preserve" x="0" y="50" width="20" height="30">
        <path d="M13.684,22.954c6.007,0,10.875-4.869,10.875-10.875c0-6.005-4.868-10.875-10.875-10.875S2.808,6.073,2.808,12.079 S7.678,22.954,13.684,22.954z M13.684,4.156c4.368,0,7.921,3.554,7.921,7.922c0,4.369-3.554,7.922-7.921,7.922 c-4.368,0-7.922-3.554-7.922-7.922C5.762,7.71,9.316,4.156,13.684,4.156z"></path>
        <path d="M28.404,9.583c-0.109-0.66-1.129-5.96-5.938-9.316c-0.669-0.467-1.589-0.304-2.056,0.366 c-0.467,0.668-0.303,1.588,0.367,2.055c3.953,2.761,4.709,7.348,4.717,7.389l0.019,0.105c0.789,3.524-0.854,11.334-8.229,13.421 c-7,1.981-11.418-2.615-11.622-2.832c-0.551-0.598-1.483-0.634-2.083-0.085c-0.6,0.552-0.64,1.485-0.088,2.086 c0.192,0.209,4.024,4.283,10.32,4.283c0.465,0,0.947-0.032,1.438-0.079v1.544h-3.571c-0.816,0-1.477,0.661-1.477,1.477 c0,0.816,0.661,1.478,1.477,1.478H21.77c0.815,0,1.478-0.661,1.478-1.478c0-0.814-0.661-1.477-1.478-1.477h-3.569v-2.116 C26.732,23.916,29.607,15.078,28.404,9.583z"></path>
      </svg>
    </pattern>

    <!-- Fourth SVG Icon Pattern -->
    <pattern id="svg-pattern4" patternUnits="userSpaceOnUse" width="50" height="80">
      <svg fill="#000000" version="1.1" id="Capa_1" xmlns="http://www.w3.org/2000/svg" xmlns:xlink="http://www.w3.org/1999/xlink" viewBox="0 0 31.385 31.385" xml:space="preserve" x="20" y="0" width="30" height="30">
        <path d="M13.869,28.447l12.146-1.632l3.746-15.817l-16.89-1.656l-2.419,12.694h-0.002L0.228,23.552L13.869,28.447z M13.564,10.458 l14.497,1.704l-3.154,13.325l-13.511-3.821L13.564,10.458z M12.496,26.297l-2.022,0.24l-3.348-1.278l1.613-0.214L12.496,26.297z"></path>
        <polygon points="30.547,11.445 26.814,27.369 13.824,29.268 13.824,29.264 0,24.205 0,24.99 13.729,30.242 27.52,28.05 31.385,12.027 "></polygon>
        <path d="M2.262,12.677l5.077-1.658c0.227,0.101,0.518,0.116,0.804,0.023c0.287-0.094,0.51-0.277,0.636-0.492l4.948-1.616 c0,0-2.138-6.552-2.25-6.893c-0.05-0.153-0.255-0.196-0.556-0.166l-0.234-0.722L10.57,1.146C10.528,1.144,9.572,1.092,8.44,1.46 C7.228,1.855,6.304,2.566,5.691,3.573C4.604,3.122,3.438,3.093,2.226,3.49C1.093,3.857,0.352,4.466,0.321,4.491L0.229,4.564 l0.22,0.67C0.128,5.411-0.05,5.596,0.012,5.783C0.33,6.758,2.262,12.677,2.262,12.677z M8.548,1.789 c0.846-0.275,1.603-0.302,1.884-0.301l2.186,6.696c-0.527-0.035-1.091,0.045-1.685,0.239c-1.453,0.474-2.654,1.482-3.01,1.8 L7.054,7.564l0.265,0.149L6.013,3.719C6.582,2.805,7.431,2.153,8.548,1.789z M2.333,3.818c1.115-0.365,2.186-0.34,3.184,0.063 l1.305,3.995L6.945,7.6l0.87,2.664c-0.48-0.038-2.112-0.115-3.566,0.359c-0.573,0.188-1.055,0.442-1.432,0.758L0.633,4.687 C0.859,4.519,1.483,4.095,2.333,3.818z"></path>
        <path d="M0.959,15.967C1,16.703,1.248,21.17,1.248,21.17l3.832-0.213c0.141,0.11,0.337,0.176,0.555,0.164 c0.218-0.013,0.406-0.1,0.532-0.225l3.736-0.207c0,0-0.274-4.946-0.289-5.203c-0.006-0.116-0.141-0.183-0.356-0.218l-0.029-0.544 l-0.08-0.027c-0.027-0.009-0.683-0.222-1.536-0.175c-0.916,0.051-1.688,0.374-2.301,0.959c-0.672-0.515-1.476-0.75-2.392-0.699 c-0.854,0.047-1.48,0.332-1.508,0.344l-0.077,0.036l0.028,0.505C1.108,15.729,0.951,15.826,0.959,15.967z M7.625,14.77 c0.639-0.035,1.17,0.087,1.364,0.14l0.28,5.055c-0.358-0.124-0.767-0.172-1.214-0.146c-1.096,0.061-2.118,0.538-2.423,0.694 l-0.111-2.007l0.155,0.152l-0.168-3.016C6.073,15.112,6.782,14.817,7.625,14.77z M2.935,15.032c0.844-0.047,1.58,0.167,2.2,0.632 l0.167,3.015l0.137-0.169l0.112,2.011c-0.326-0.112-1.444-0.469-2.542-0.408c-0.434,0.023-0.814,0.112-1.136,0.261l-0.279-5.051 C1.781,15.246,2.293,15.066,2.935,15.032z"></path>
      </svg>
    </pattern>
  </defs>

  <!-- Background Rectangle with Gradient -->
  <rect width="100%" height="100%" fill="url(#blue-yellow-gradient)" />

  <!-- Pattern Rectangles -->
  <rect width="100%" height="100%" fill="url(#fa-pattern1)" opacity="0.3"/>
  <rect width="100%" height="100%" fill="url(#fa-pattern2)" opacity="0.3"/>
  <rect width="100%" height="100%" fill="url(#svg-pattern3)" opacity="0.3"/>
  <rect width="100%" height="100%" fill="url(#svg-pattern4)" opacity="0.3"/>
</svg>
